<svg width="149" height="218" viewBox="0 0 149 218" fill="none" xmlns="http://www.w3.org/2000/svg">
<path d="M40.6618 193.45C40.666 196.128 41.4533 198.751 42.9306 200.982L50.1647 211.92C51.4005 213.79 53.0767 215.323 55.0441 216.384C57.0115 217.445 59.2091 218 61.4413 218H87.5629C89.7951 218 91.9927 217.445 93.9601 216.384C95.9275 215.323 97.6037 213.79 98.8395 211.92L106.074 200.982C107.55 198.751 108.34 196.13 108.342 193.45L108.359 177.122H40.6406L40.6618 193.45ZM0 74.9363C0 93.8278 6.96321 111.063 18.4388 124.232C25.4316 132.258 36.3695 149.025 40.539 163.169C40.5559 163.28 40.5686 163.39 40.5856 163.501H108.414C108.431 163.39 108.444 163.284 108.461 163.169C112.63 149.025 123.568 132.258 130.561 124.232C142.037 111.063 149 93.8278 149 74.9363C149 33.4703 115.522 -0.127369 74.2672 0.000363004C31.0868 0.132352 0 35.3267 0 74.9363ZM74.5 40.8745C55.8284 40.8745 40.6364 56.1555 40.6364 74.9363C40.6364 78.7001 37.6056 81.7486 33.8636 81.7486C30.1217 81.7486 27.0909 78.7001 27.0909 74.9363C27.0909 48.6406 48.3573 27.2498 74.5 27.2498C78.2419 27.2498 81.2727 30.2983 81.2727 34.0621C81.2727 37.826 78.2419 40.8745 74.5 40.8745Z" fill="black"/>
</svg>
