<svg width="150" height="150" viewBox="0 0 150 150" fill="none" xmlns="http://www.w3.org/2000/svg">
<path d="M104.844 24.3505L128.333 50.7814C129.323 51.8949 129.323 53.7117 128.333 54.8252L71.4583 118.822L47.2917 121.84C44.0625 122.25 41.3281 119.174 41.6927 115.54L44.375 88.3473L101.25 24.3505C102.24 23.237 103.854 23.237 104.844 24.3505ZM147.031 17.6402L134.323 3.3405C130.365 -1.1135 123.932 -1.1135 119.948 3.3405L110.729 13.7136C109.74 14.8271 109.74 16.6439 110.729 17.7574L134.219 44.1883C135.208 45.3018 136.823 45.3018 137.812 44.1883L147.031 33.8152C150.99 29.3319 150.99 22.0942 147.031 17.6402V17.6402ZM100 101.416V131.246H16.6667V37.478H76.5104C77.3437 37.478 78.125 37.0971 78.724 36.4524L89.1406 24.7314C91.1198 22.5044 89.7135 18.7244 86.9271 18.7244H12.5C5.59896 18.7244 0 25.0244 0 32.7896V135.935C0 143.7 5.59896 150 12.5 150H104.167C111.068 150 116.667 143.7 116.667 135.935V89.6953C116.667 86.5599 113.307 85.0068 111.328 87.2045L100.911 98.9256C100.339 99.5995 100 100.479 100 101.416Z" fill="black"/>
</svg>
